<svg id="Layer_1" data-name="Layer 1" xmlns="http://www.w3.org/2000/svg" viewBox="0 0 49.03 47.39"><defs><style>.cls-1{stroke:#fff;stroke-miterlimit:10;stroke-width:3px;}</style></defs><path class="cls-1" d="M25.8,2.44l6.51,13.35a.78.78,0,0,0,.58.43l14.57,2.14a.78.78,0,0,1,.43,1.32L37.34,30.1a.75.75,0,0,0-.22.68l2.49,14.7a.78.78,0,0,1-1.13.82l-13-6.93a.79.79,0,0,0-.73,0l-13,6.93a.78.78,0,0,1-1.13-.82l2.49-14.7a.78.78,0,0,0-.22-.68L2.32,19.68a.78.78,0,0,1,.43-1.32l14.57-2.14a.78.78,0,0,0,.58-.43L24.41,2.44A.77.77,0,0,1,25.8,2.44Z" transform="translate(-0.59 -0.5)"/></svg>